<?xml version="1.0"?>
<svg xmlns="http://www.w3.org/2000/svg" xmlns:xlink="http://www.w3.org/1999/xlink" xmlns:svgjs="http://svgjs.com/svgjs" version="1.1" width="512" height="512" x="0" y="0" viewBox="0 0 512 512" style="enable-background:new 0 0 512 512" xml:space="preserve" class=""><g><g xmlns="http://www.w3.org/2000/svg"><path d="m475.653 208.334c-5.698-26.191-16.143-51.387-30.659-73.931l21.885-28.14-61.143-61.143-28.14 21.885c-22.544-14.517-47.739-24.961-73.931-30.659l-4.423-36.346h-43.242-43.242l-4.424 36.347c-26.191 5.698-51.387 16.143-73.931 30.659l-28.14-21.885-61.143 61.143 21.885 28.14c-14.517 22.544-24.961 47.739-30.659 73.931l-36.346 4.423v86.484l36.347 4.424c5.698 26.191 16.143 51.387 30.659 73.931l-21.885 28.14 61.143 61.143 28.14-21.885c22.544 14.517 47.739 24.961 73.931 30.659l4.423 36.346h43.242 43.242l4.424-36.347c26.191-5.698 51.387-16.143 73.931-30.659l28.14 21.885 61.143-61.143-21.885-28.14c14.517-22.544 24.961-47.739 30.659-73.931l36.346-4.423v-86.484z" fill="#1a22a5" data-original="#f9f5f3" style="" class=""/><path d="m303.666 475.653c26.191-5.698 51.387-16.143 73.931-30.659l28.14 21.885 61.143-61.143-21.885-28.14c14.517-22.544 24.961-47.739 30.659-73.931l36.346-4.423v-86.484l-36.347-4.424c-5.698-26.191-16.143-51.387-30.659-73.931l21.885-28.14-61.143-61.143-28.14 21.885c-22.544-14.517-47.739-24.961-73.931-30.659l-4.423-36.346h-43.242v512h43.242z" fill="#1a22a5" data-original="#f0dbd8" style="" class=""/><circle cx="256" cy="256" fill="#f3f3f9" r="165" data-original="#57d9ad" style="" class=""/><path d="m421 256c0-90.981-74.019-165-165-165v330c90.981 0 165-74.019 165-165z" fill="#f3f3f9" data-original="#26bfa6" style="" class=""/><path d="m305.395 200.395-49.395 49.394-15 15-34.395-34.394-21.21 21.21 55.605 55.606 15-15 70.605-70.606z" fill="#1a22a5" data-original="#f9f5f3" style="" class=""/><path d="m305.395 200.395-49.395 49.394v42.422l70.605-70.606z" fill="#1a22a5" data-original="#f0dbd8" style="" class=""/></g></g></svg>
