<?xml version="1.0"?>
<svg xmlns="http://www.w3.org/2000/svg" xmlns:xlink="http://www.w3.org/1999/xlink" xmlns:svgjs="http://svgjs.com/svgjs" version="1.1" width="512" height="512" x="0" y="0" viewBox="0 0 64 64" style="enable-background:new 0 0 512 512" xml:space="preserve" class=""><g><linearGradient xmlns="http://www.w3.org/2000/svg" id="SVGID_1_" gradientUnits="userSpaceOnUse" x1="32" x2="32" y1="63" y2="1"><stop stop-opacity="1" stop-color="#9f2fff" offset="0"/><stop stop-opacity="1" stop-color="#0bb1d3" offset="0.9845559845559846"/><stop stop-opacity="1" stop-color="#0bb1d3" offset="0.9845559845559846"/><stop stop-opacity="1" stop-color="#0b1ba0" offset="1"/><stop stop-opacity="1" stop-color="#0bb1d3" offset="1"/></linearGradient><path xmlns="http://www.w3.org/2000/svg" d="m32 47c11.028 0 20-8.972 20-20s-8.972-20-20-20-20 8.972-20 20 8.972 20 20 20zm0-2c-5.881 0-11.097-2.848-14.384-7.224 1.025-3.5 3.244-6.412 6.154-8.32l2.685 9.26 5.545-4.435 5.544 4.435 2.685-9.258c2.911 1.908 5.132 4.818 6.157 8.316-3.287 4.376-8.504 7.226-14.386 7.226zm-6-26c0-3.309 2.691-6 6-6s6 2.691 6 6-2.691 6-6 6-6-2.691-6-6zm6 12.299-2.911-4.005c.947-.186 1.918-.294 2.912-.294.993 0 1.964.108 2.909.295zm4.978-3.448c.499.176.983.384 1.458.61l-1.98 6.823-3.086-2.469zm-9.957-.001 3.609 4.965-3.086 2.469-1.981-6.824c.475-.226.959-.434 1.458-.61zm4.979-18.85c9.925 0 18 8.075 18 18 0 3.14-.813 6.093-2.232 8.666-1.99-4.963-6.192-8.661-11.272-10.053 2.113-1.442 3.504-3.868 3.504-6.613 0-4.411-3.589-8-8-8s-8 3.589-8 8c0 2.745 1.391 5.171 3.504 6.612-5.082 1.392-9.281 5.09-11.27 10.055-1.421-2.573-2.234-5.526-2.234-8.667 0-9.925 8.075-18 18-18zm13.969 18.936 1.996.129c-.046.709-.142 1.427-.284 2.134l-1.961-.396c.125-.62.209-1.248.249-1.867zm0-1.871c-.178-2.71-1.135-5.292-2.769-7.466l1.6-1.201c1.867 2.485 2.962 5.438 3.165 8.536zm-29.394-3.331c.189-.687.427-1.364.705-2.015l1.838.787c-.242.567-.449 1.159-.615 1.759zm3.39-2.89-1.719-1.023c.361-.606.769-1.196 1.21-1.755l1.568 1.242c-.387.488-.744 1.004-1.059 1.536zm2.312-2.916-1.389-1.439c.475-.457.982-.891 1.509-1.287l1.203 1.598c-.462.346-.907.726-1.323 1.128zm8.723 24.072h2v2h-2zm0-4h2v2h-2zm19 14v-4h-1.863c.567-.879.889-1.907.894-2.97 1.921-.008 3.75-1.023 4.736-2.731l1.5-2.598c.986-1.708.95-3.8-.003-5.468 1.66-.967 2.736-2.76 2.736-4.733v-3c0-1.973-1.076-3.766-2.736-4.733.953-1.668.989-3.76.003-5.468l-1.5-2.598c-.986-1.708-2.814-2.724-4.736-2.731-.008-1.921-1.023-3.75-2.731-4.736l-2.598-1.5c-1.708-.986-3.8-.95-5.468.003-.968-1.661-2.761-2.737-4.734-2.737h-3c-1.973 0-3.766 1.076-4.733 2.736-1.669-.953-3.76-.989-5.468-.003l-2.598 1.5c-1.708.987-2.723 2.816-2.731 4.737-1.921.008-3.75 1.023-4.736 2.731l-1.5 2.598c-.986 1.708-.95 3.8.003 5.468-1.661.967-2.737 2.76-2.737 4.733v3c0 1.973 1.076 3.766 2.736 4.733-.953 1.668-.989 3.76-.003 5.468l1.5 2.598c.986 1.708 2.814 2.724 4.736 2.731.004 1.062.326 2.091.894 2.97h-1.863v4h-13.081l4.801 6-4.801 6h23.081v-6h16v6h23.081l-4.801-6 4.801-6zm-31.895-2 2.193 1.267c1.708.985 3.799.95 5.467-.003.969 1.66 2.762 2.736 4.735 2.736h3c1.973 0 3.766-1.076 4.733-2.736 1.668.953 3.759.99 5.468.003l2.194-1.267h2.105v6h-32v-6zm-6.139-8.701-1.5-2.598c-.776-1.345-.553-3.065.544-4.186l1.182-1.207-1.627-.455c-1.51-.421-2.565-1.8-2.565-3.353v-3c0-1.553 1.055-2.932 2.564-3.354l1.627-.455-1.182-1.207c-1.097-1.12-1.32-2.841-.544-4.186l1.5-2.598c.775-1.344 2.38-2.011 3.896-1.622l1.638.42-.42-1.638c-.39-1.518.277-3.119 1.622-3.896l2.598-1.5c1.344-.777 3.063-.554 4.186.544l1.207 1.182.455-1.627c.421-1.508 1.8-2.563 3.353-2.563h3c1.553 0 2.932 1.055 3.354 2.564l.455 1.627 1.207-1.182c1.121-1.097 2.841-1.322 4.186-.544l2.598 1.5c1.345.776 2.012 2.378 1.622 3.896l-.42 1.638 1.638-.42c1.516-.39 3.119.278 3.896 1.622l1.5 2.598c.776 1.345.553 3.065-.544 4.186l-1.182 1.207 1.627.455c1.508.421 2.563 1.8 2.563 3.353v3c0 1.553-1.055 2.932-2.564 3.354l-1.627.455 1.182 1.207c1.097 1.12 1.32 2.841.544 4.186l-1.5 2.598c-.775 1.345-2.379 2.01-3.896 1.622l-1.638-.42.42 1.638c.39 1.518-.277 3.119-1.622 3.896l-2.598 1.5c-1.345.777-3.065.553-4.186-.544l-1.207-1.182-.455 1.627c-.421 1.508-1.8 2.563-3.353 2.563h-3c-1.553 0-2.932-1.055-3.354-2.564l-.455-1.627-1.207 1.182c-1.119 1.097-2.841 1.321-4.186.544l-2.598-1.5c-1.345-.776-2.012-2.378-1.622-3.896l.42-1.638-1.638.42c-1.515.388-3.119-.277-3.894-1.622zm-3.686 16.701-3.199-4h8.919v3.5l6 4.5h-14.919zm13.72 3-4-3h4zm24-3-4 3v-3zm12.919 4h-14.919l6-4.5v-3.5h8.919l-3.199 4z" fill="url(#SVGID_1_)" data-original="url(#SVGID_1_)" style=""/></g></svg>
