<?xml version="1.0"?>
<svg xmlns="http://www.w3.org/2000/svg" xmlns:xlink="http://www.w3.org/1999/xlink" xmlns:svgjs="http://svgjs.com/svgjs" version="1.1" width="512" height="512" x="0" y="0" viewBox="0 0 464 464.3679" style="enable-background:new 0 0 512 512" xml:space="preserve" class=""><g><linearGradient xmlns="http://www.w3.org/2000/svg" id="a"><stop stop-opacity="1" stop-color="#00efd1" offset="0"/><stop stop-opacity="1" stop-color="#132fa0" offset="0"/></linearGradient><linearGradient xmlns="http://www.w3.org/2000/svg" xmlns:xlink="http://www.w3.org/1999/xlink" id="b" gradientUnits="userSpaceOnUse" x1="188.18395" x2="188.18395" xlink:href="#a" y1="-7.817142" y2="471.122858"/><linearGradient xmlns="http://www.w3.org/2000/svg" xmlns:xlink="http://www.w3.org/1999/xlink" id="c" gradientUnits="userSpaceOnUse" x1="188.18495" x2="188.18495" xlink:href="#a" y1="-7.817142" y2="471.122858"/><path xmlns="http://www.w3.org/2000/svg" d="m184.65625 37.398438-146.929688 71.933593c-2.757812 1.335938-4.519531 4.121094-4.542968 7.183594v142.773437c0 33.847657 22.828125 76.90625 50.8125 95.988282l99.648437 67.941406c2.730469 1.851562 6.3125 1.851562 9.039063 0l99.679687-67.9375c27.988281-19.085938 50.820313-62.144531 50.820313-95.992188v-142.558593c-.023438-3.058594-1.78125-5.839844-4.53125-7.179688l-146.921875-72.148437c-2.230469-1.089844-4.839844-1.089844-7.074219-.003906zm142.527344 84.316406v137.574218c0 28.195313-20.511719 66.871094-43.832032 82.769532l-95.136718 64.867187-95.1875-64.867187c-23.316406-15.898438-43.84375-54.574219-43.84375-82.769532v-137.785156l138.984375-68.007812zm0 0" fill="url(#b)" data-original="url(#b)" style="" class=""/><path xmlns="http://www.w3.org/2000/svg" d="m371.574219 89.085938-179.789063-88.269532c-2.234375-1.089844-4.847656-1.089844-7.082031 0l-179.882813 88.027344c-2.78125 1.324219-4.574218 4.105469-4.636718 7.183594v163.261718c0 44.15625 28.730468 98.242188 65.230468 123.125l118.195313 80.5625c2.738281 1.855469 6.328125 1.855469 9.066406 0l118.265625-80.558593c36.503906-24.886719 65.242188-78.972657 65.242188-123.128907v-163.019531c-.054688-3.074219-1.839844-5.851562-4.609375-7.183593zm-11.390625 170.203124c0 39.414063-25.664063 87.691407-58.25 109.910157l-113.683594 77.484375-113.785156-77.488282c-32.582032-22.210937-58.28125-70.492187-58.28125-109.90625v-158.273437l172.003906-84.105469 172 84.339844zm0 0" fill="url(#b)" data-original="url(#b)" style="" class=""/><path xmlns="http://www.w3.org/2000/svg" d="m125.453125 202.867188c-3.109375-3.140626-8.175781-3.164063-11.316406-.054688l-22.738281 22.515625c-3.136719 3.109375-3.164063 8.171875-.054688 11.3125l68.644531 69.242187c1.503907 1.496094 3.546875 2.324219 5.667969 2.300782h.019531c2.109375.027344 4.148438-.792969 5.65625-2.269532l113.664063-113.632812c1.503906-1.496094 2.347656-3.527344 2.347656-5.648438 0-2.121093-.84375-4.152343-2.347656-5.648437l-22.625-22.617187c-3.125-3.125-8.191406-3.125-11.316406 0l-85.242188 85.246093zm131.261719-27.515626 11.3125 11.3125-102.324219 102.324219-57.359375-57.921875 11.367188-11.257812 40.390624 40.894531c1.484376 1.542969 3.523438 2.4375 5.664063 2.480469h.019531c2.136719-.042969 4.167969-.921875 5.65625-2.453125zm0 0" fill="url(#c)" data-original="url(#c)" style="" class=""/></g></svg>
