<?xml version="1.0"?>
<svg xmlns="http://www.w3.org/2000/svg" xmlns:xlink="http://www.w3.org/1999/xlink" xmlns:svgjs="http://svgjs.com/svgjs" version="1.1" width="512" height="512" x="0" y="0" viewBox="0 0 512 512" style="enable-background:new 0 0 512 512" xml:space="preserve" class=""><g><defs xmlns="http://www.w3.org/2000/svg"><linearGradient id="linear-gradient" x1="272.258" y1="490" x2="272.258" y2="67.413" gradientUnits="userSpaceOnUse"><stop stop-opacity="1" stop-color="#a163f5" offset="0.322"/><stop stop-opacity="1" stop-color="#b074ee" offset="0.466"/><stop stop-opacity="1" stop-color="#132fa0" offset="0.752"/><stop stop-opacity="1" stop-color="#efbad3" offset="0.898"/></linearGradient><linearGradient xmlns:xlink="http://www.w3.org/1999/xlink" id="linear-gradient-2" x1="255.669" y1="490" x2="255.669" y2="67.413" xlink:href="#linear-gradient"/><linearGradient xmlns:xlink="http://www.w3.org/1999/xlink" id="linear-gradient-3" x1="418.857" y1="490" x2="418.857" y2="67.413" xlink:href="#linear-gradient"/><linearGradient xmlns:xlink="http://www.w3.org/1999/xlink" id="linear-gradient-4" x1="125" y1="490" x2="125" y2="67.413" xlink:href="#linear-gradient"/><linearGradient xmlns:xlink="http://www.w3.org/1999/xlink" id="linear-gradient-6" x1="180.812" y1="490" x2="180.812" y2="67.413" xlink:href="#linear-gradient"/><linearGradient xmlns:xlink="http://www.w3.org/1999/xlink" id="linear-gradient-7" x1="159.495" y1="490" x2="159.495" y2="67.413" xlink:href="#linear-gradient"/></defs><path xmlns="http://www.w3.org/2000/svg" d="M274.685,392h-4.854a6,6,0,0,0,0,12h4.854a6,6,0,0,0,0-12Z" style="fill:url(#linear-gradient)" fill=""/><path xmlns="http://www.w3.org/2000/svg" d="M456.829,168a6,6,0,0,0-5.195-3H357.177L310.242,83.019A6,6,0,0,0,305.035,80H206.963a6,6,0,0,0-5.2,3L154.5,165h-94.8a6,6,0,0,0-5.195,3L5.475,252.843a6,6,0,0,0,.01,6.023l49.036,84.155A6,6,0,0,0,59.705,346h94.4l47.67,82.015A6,6,0,0,0,206.963,431h98.072a6,6,0,0,0,5.2-3l47.341-82h94.062a6,6,0,0,0,5.184-2.979l49.036-84.155a6,6,0,0,0,.01-6.023ZM210.43,92h91.126l45.278,79.087L301.167,250H298V230.723A28.957,28.957,0,0,0,269.244,202h-2.437A30.454,30.454,0,0,0,288,172.707v-20.1a5.738,5.738,0,0,0,4.679-5.813,20.986,20.986,0,0,0-20.95-21.035,15.515,15.515,0,0,1-4.55-.691,37.133,37.133,0,0,0-10.029-1.881A31.167,31.167,0,0,0,226,154.213v18.494c0,13.8,9.354,25.293,21.833,29.293H245.4A28.647,28.647,0,0,0,217,230.723V250h-6.392l-45.766-78.906Zm29.478,78c9.429,0,17.145-8,17.523-17H276v19.707a19,19,0,1,1-38,0V170ZM238,158v-3.787a19.172,19.172,0,0,1,19.171-19.023,25.041,25.041,0,0,1,6.492,1.364,28.18,28.18,0,0,0,8.115,1.31A8.716,8.716,0,0,1,278.564,141H256.728a11.372,11.372,0,0,0-11.282,11.372A5.623,5.623,0,0,1,239.908,158Zm48,72.723V250H229V230.723A16.634,16.634,0,0,1,245.4,214h23.848A16.944,16.944,0,0,1,286,230.723ZM138,334H82V315.491A16.217,16.217,0,0,1,98.137,299h23.848c9.089,0,16.015,7.4,16.015,16.491ZM92.65,254c9.43,0,17.145-7,17.523-16H129v19.476a19,19,0,1,1-38,0V254ZM91,242v-3.019a19.061,19.061,0,0,1,19.042-19.023,24.918,24.918,0,0,1,6.426,1.364,28.1,28.1,0,0,0,8.084,1.426A8.758,8.758,0,0,1,131.306,226H109.469a10.951,10.951,0,0,0-11.281,10.873c0,3.053-2.485,5.127-5.538,5.127Zm59,92V315.491A28.127,28.127,0,0,0,121.985,287h-2.437A30.971,30.971,0,0,0,141,257.476v-20.1a5.627,5.627,0,0,0,4.549-5.813,21.04,21.04,0,0,0-21.013-21.035,15.74,15.74,0,0,1-4.584-.691,36.474,36.474,0,0,0-9.915-1.881A31.07,31.07,0,0,0,79,238.981v18.5A31.08,31.08,0,0,0,100.574,287H98.137A28.229,28.229,0,0,0,70,315.491V334H63.153L17.606,255.833,63.167,177h91.1l45.585,78.787L154.4,334Zm136,85H229V400.259A16.238,16.238,0,0,1,245.4,384h23.848c9.088,0,16.756,7.171,16.756,16.259Zm-46.092-80a17.265,17.265,0,0,0,17.523-17H276v20.244a19,19,0,1,1-38,0V339ZM238,327v-3.25a19.171,19.171,0,0,1,19.171-19.023,25.041,25.041,0,0,1,6.492,1.364,27.871,27.871,0,0,0,8.115,1.041A8.49,8.49,0,0,1,278.564,310H256.728a11.372,11.372,0,0,0-11.282,11.372A5.623,5.623,0,0,1,239.908,327Zm63.57,92H298V400.259C298,384.554,284.949,372,269.244,372h-2.437A31.036,31.036,0,0,0,288,342.244v-20.1a5.736,5.736,0,0,0,4.679-5.813,20.986,20.986,0,0,0-20.95-21.034,15.548,15.548,0,0,1-4.55-.691,37.094,37.094,0,0,0-10.029-1.881A31.167,31.167,0,0,0,226,323.75v18.494A31.6,31.6,0,0,0,247.833,372H245.4A28.25,28.25,0,0,0,217,400.259V419h-6.584l-45.625-78.5L210.368,262h91.039l45.478,78.51ZM432,334H376V315.491C376,306.4,382.907,299,392,299h23.848A16.233,16.233,0,0,1,432,315.491Zm-45.492-80c9.43,0,17.145-7,17.522-16H423v19.476a19,19,0,1,1-38,0V254ZM385,242v-3.019a19,19,0,0,1,18.971-19.023,24.814,24.814,0,0,1,6.39,1.364,27.984,27.984,0,0,0,8.066,1.426A8.725,8.725,0,0,1,425.164,226H403.327a10.952,10.952,0,0,0-11.282,10.873c0,3.053-2.484,5.127-5.537,5.127Zm63.186,92H444V315.491A28.246,28.246,0,0,0,415.843,287h-2.437A31.1,31.1,0,0,0,435,257.476v-20.1a5.568,5.568,0,0,0,4.479-5.813,21.072,21.072,0,0,0-21.05-21.035,15.847,15.847,0,0,1-4.6-.691,36.112,36.112,0,0,0-9.853-1.881A31.017,31.017,0,0,0,373,238.981v18.5A30.954,30.954,0,0,0,394.432,287H392c-15.7,0-28,12.786-28,28.491V334h-6.727l-45.356-78.213L357.4,177h90.771l45.561,78.833Z" style="fill:url(#linear-gradient-2)" fill=""/><path xmlns="http://www.w3.org/2000/svg" d="M421.284,308H416.43a6,6,0,0,0,0,12h4.854a6,6,0,0,0,0-12Z" style="fill:url(#linear-gradient-3)" fill=""/><path xmlns="http://www.w3.org/2000/svg" d="M127.427,308h-4.854a6,6,0,1,0,0,12h4.854a6,6,0,0,0,0-12Z" style="fill:url(#linear-gradient-4)" fill=""/><path xmlns="http://www.w3.org/2000/svg" d="M263.831,229a6,6,0,0,0,6,6h4.854a6,6,0,0,0,0-12h-4.854A6,6,0,0,0,263.831,229Z" style="fill:url(#linear-gradient)" fill=""/><path xmlns="http://www.w3.org/2000/svg" d="M176.78,97.449a6,6,0,0,0,8.151-2.36l2.274-4.128a6,6,0,0,0-10.511-5.79L174.42,89.3A6,6,0,0,0,176.78,97.449Z" style="fill:url(#linear-gradient-6)" fill=""/><path xmlns="http://www.w3.org/2000/svg" d="M147.289,150.982a6,6,0,0,0,8.15-2.36l18.623-33.8a6,6,0,0,0-10.511-5.79l-18.622,33.8A6,6,0,0,0,147.289,150.982Z" style="fill:url(#linear-gradient-7)" fill=""/></g></svg>
